<svg width="481" height="63" viewBox="0 0 481 63" fill="none" xmlns="http://www.w3.org/2000/svg">
<path d="M33.5007 0L41.4091 24.0639L67.0013 24.0639L46.2968 38.9361L54.2052 63L33.5007 48.1277L12.7961 63L20.7045 38.9361L0 24.0639L25.5922 24.0639L33.5007 0Z" fill="#2E2F31"/>
<path d="M137 0L144.909 24.0639L170.501 24.0639L149.796 38.9361L157.705 63L137 48.1277L116.296 63L124.204 38.9361L103.5 24.0639L129.092 24.0639L137 0Z" fill="#2E2F31"/>
<path d="M240.5 0L248.408 24.0639L274.001 24.0639L253.296 38.9361L261.205 63L240.5 48.1277L219.795 63L227.704 38.9361L206.999 24.0639L232.592 24.0639L240.5 0Z" fill="#2E2F31"/>
<path d="M344 0L351.908 24.0639L377.5 24.0639L356.796 38.9361L364.704 63L344 48.1277L323.295 63L331.204 38.9361L310.499 24.0639L336.091 24.0639L344 0Z" fill="#2E2F31"/>
<path d="M447.499 0L455.408 24.0639L481 24.0639L460.295 38.9361L468.204 63L447.499 48.1277L426.795 63L434.703 38.9361L413.999 24.0639L439.591 24.0639L447.499 0Z" fill="#2E2F31"/>
</svg>
