<svg width="1212" height="530" viewBox="0 0 1212 530" fill="none" xmlns="http://www.w3.org/2000/svg">
<path d="M1124.82 0C1129.94 0 1134.04 3.49246 1134.69 7.77812C1139.47 39.2667 1170.26 63.8794 1208.28 65.7444C1210.34 65.8453 1212 67.2538 1212 68.9941V75.2817C1212 80.4692 1206.92 84.5395 1201.03 85.9972C1184.84 90.0006 1173.02 102.636 1173.02 117.604C1173.02 131.467 1183.16 143.33 1197.52 148.186C1205.12 150.757 1212 156.142 1212 163.062V172.501C1212 178.554 1206.03 183.283 1199.26 185.261C1183.99 189.72 1173.02 201.973 1173.02 216.391C1173.02 230.808 1183.99 243.061 1199.26 247.52C1206.03 249.498 1212 254.227 1212 260.28V265H1115.49V7.88771C1115.49 3.53146 1119.67 0 1124.82 0Z" fill="#D9D9D9"/>
<path d="M1124.82 530C1129.94 530 1134.04 526.508 1134.69 522.222C1139.47 490.733 1170.26 466.121 1208.28 464.256C1210.34 464.155 1212 462.746 1212 461.006V454.718C1212 449.531 1206.92 445.46 1201.03 444.003C1184.84 439.999 1173.02 427.364 1173.02 412.396C1173.02 398.533 1183.16 386.67 1197.52 381.814C1205.12 379.243 1212 373.858 1212 366.938V357.499C1212 351.446 1206.03 346.717 1199.26 344.739C1183.99 340.28 1173.02 328.027 1173.02 313.609C1173.02 299.192 1183.99 286.939 1199.26 282.48C1206.03 280.502 1212 275.773 1212 269.72V265H1115.49V522.112C1115.49 526.469 1119.67 530 1124.82 530Z" fill="#D9D9D9"/>
<path d="M87.1781 0C82.0638 0 77.9597 3.49246 77.309 7.77812C72.5286 39.2667 41.7355 63.8794 3.71663 65.7444C1.66007 65.8453 0 67.2538 0 68.9941V75.2817C0 80.4692 5.07876 84.5395 10.9718 85.9972C27.1565 90.0006 38.977 102.636 38.977 117.604C38.977 131.467 28.8361 143.33 14.4789 148.186C6.87522 150.757 0 156.142 0 163.062V172.501C0 178.554 5.96781 183.283 12.7399 185.261C28.0102 189.72 38.977 201.973 38.977 216.391C38.977 230.808 28.0102 243.061 12.7399 247.52C5.96781 249.498 0 254.227 0 260.28V265H96.5145V7.88771C96.5145 3.53146 92.3346 0 87.1781 0Z" fill="#D9D9D9"/>
<path d="M87.1781 530C82.0638 530 77.9597 526.508 77.3091 522.222C72.5286 490.733 41.7354 466.121 3.71662 464.256C1.6601 464.155 0 462.746 0 461.006V454.718C0 449.531 5.07884 445.46 10.9718 444.003C27.1565 439.999 38.977 427.364 38.977 412.396C38.977 398.533 28.8359 386.67 14.4789 381.814C6.87514 379.243 0 373.858 0 366.938V357.499C0 351.446 5.96771 346.717 12.7399 344.739C28.0102 340.28 38.977 328.027 38.977 313.609C38.977 299.192 28.0102 286.939 12.7399 282.48C5.96773 280.502 0 275.773 0 269.72V265H96.5145V522.112C96.5145 526.469 92.3345 530 87.1781 530Z" fill="#D9D9D9"/>
<path d="M87.2343 0H1124.77V530H87.2343V0Z" fill="#D9D9D9"/>
</svg>
